<?xml version="1.0" encoding="UTF-8" standalone="no"?>
<svg
   xmlns:dc="http://purl.org/dc/elements/1.1/"
   xmlns:cc="http://creativecommons.org/ns#"
   xmlns:rdf="http://www.w3.org/1999/02/22-rdf-syntax-ns#"
   xmlns:svg="http://www.w3.org/2000/svg"
   xmlns="http://www.w3.org/2000/svg"
   xmlns:sodipodi="http://sodipodi.sourceforge.net/DTD/sodipodi-0.dtd"
   xmlns:inkscape="http://www.inkscape.org/namespaces/inkscape"
   viewBox="0 0 25 25"
   version="1.1"
   id="svg22"
   sodipodi:docname="day.svg"
   width="25"
   height="25"
   inkscape:version="1.0.1 (3bc2e813f5, 2020-09-07)">
  <metadata
     id="metadata28">
    <rdf:RDF>
      <cc:Work
         rdf:about="">
        <dc:format>image/svg+xml</dc:format>
        <dc:type
           rdf:resource="http://purl.org/dc/dcmitype/StillImage" />
        <dc:title></dc:title>
      </cc:Work>
    </rdf:RDF>
  </metadata>
  <defs
     id="defs26" />
  <sodipodi:namedview
     pagecolor="#ffffff"
     bordercolor="#666666"
     borderopacity="1"
     objecttolerance="10"
     gridtolerance="10"
     guidetolerance="10"
     inkscape:pageopacity="0"
     inkscape:pageshadow="2"
     inkscape:window-width="1920"
     inkscape:window-height="1137"
     id="namedview24"
     showgrid="false"
     inkscape:zoom="30.625"
     inkscape:cx="11.785611"
     inkscape:cy="13.683107"
     inkscape:window-x="-8"
     inkscape:window-y="-8"
     inkscape:window-maximized="1"
     inkscape:current-layer="svg22"
     inkscape:document-rotation="0" />
  <ellipse
     cx="12.480597"
     cy="12.529635"
     fill="#464646"
     id="circle4"
     rx="6.2199159"
     ry="6.2116976"
     style="fill:#000000;stroke-width:1.24316" />
  <path
     d="m 23.676443,13.771975 h -1.243982 a 1.2439835,1.2423397 0 0 1 0,-2.484679 h 1.243982 a 1.2439835,1.2423397 0 0 1 0,2.484679 z"
     fill="#464646"
     id="path6"
     style="fill:#000000;stroke-width:1.24316" />
  <path
     d="M 2.5287313,13.771975 H 1.2847482 a 1.2439835,1.2423397 0 0 1 0,-2.484679 h 1.2439831 a 1.2439835,1.2423397 0 0 1 0,2.484679 z"
     fill="#464646"
     id="path8"
     style="fill:#000000;stroke-width:1.24316" />
  <path
     d="m 19.52154,6.7403332 a 1.2439832,1.2423393 0 0 1 -0.821028,-0.3602784 1.2439832,1.2423393 0 0 1 0,-1.7516986 l 0.883227,-0.8820609 a 1.2439832,1.2423393 0 1 1 1.754016,1.7516986 L 20.454528,6.3800548 A 1.2439832,1.2423393 0 0 1 19.52154,6.7403332 Z"
     fill="#464646"
     id="path10"
     style="fill:#000000;stroke-width:1.24316" />
  <path
     d="m 4.5688637,21.673254 a 1.2439832,1.2423393 0 0 1 -0.8832281,-0.36028 1.2439832,1.2423393 0 0 1 0,-1.751698 l 0.8832281,-0.819944 a 1.2439832,1.2423393 0 0 1 1.754016,1.7517 l -0.8832279,0.882059 a 1.2439832,1.2423393 0 0 1 -0.8707881,0.298163 z"
     fill="#464646"
     id="path12"
     style="fill:#000000;stroke-width:1.24316" />
  <path
     d="M 12.480596,3.833259 A 1.2439832,1.2423393 0 0 1 11.236613,2.5909196 V 1.3485801 a 1.2439834,1.2423396 0 0 1 2.487965,0 V 2.5909196 A 1.2439832,1.2423393 0 0 1 12.480596,3.833259 Z"
     fill="#464646"
     id="path14"
     style="fill:#000000;stroke-width:1.24316" />
  <path
     d="m 12.480596,24.953029 a 1.2439832,1.2423393 0 0 1 -1.243983,-1.24234 v -1.242338 a 1.2439834,1.2423396 0 0 1 2.487965,0 v 1.242338 a 1.2439832,1.2423393 0 0 1 -1.243982,1.24234 z"
     fill="#464646"
     id="path16"
     style="fill:#000000;stroke-width:1.24316" />
  <path
     d="M 5.4396518,6.7403332 A 1.2439832,1.2423393 0 0 1 4.5688637,6.3800548 L 3.6856356,5.4979939 A 1.2439832,1.2423393 0 0 1 5.4396518,3.7462953 l 0.8832279,0.8820609 a 1.2439832,1.2423393 0 0 1 0,1.7516986 1.2439832,1.2423393 0 0 1 -0.8832279,0.3602784 z"
     fill="#464646"
     id="path18"
     style="fill:#000000;stroke-width:1.24316" />
  <path
     d="m 20.392327,21.673254 a 1.2439832,1.2423393 0 0 1 -0.870787,-0.36028 l -0.821028,-0.882059 a 1.2439832,1.2423393 0 0 1 1.691815,-1.689583 l 0.883229,0.882062 a 1.2439832,1.2423393 0 0 1 0,1.751697 1.2439832,1.2423393 0 0 1 -0.883229,0.298163 z"
     fill="#464646"
     id="path20"
     style="fill:#000000;stroke-width:1.24316" />
</svg>
