<?xml version="1.0" ?><!DOCTYPE svg  PUBLIC '-//W3C//DTD SVG 1.1//EN'  'http://www.w3.org/Graphics/SVG/1.1/DTD/svg11.dtd'><svg id="Lager_1" style="enable-background:new -265 388.9 64 64;" version="1.1" viewBox="-265 388.9 64 64" xml:space="preserve" xmlns="http://www.w3.org/2000/svg" xmlns:xlink="http://www.w3.org/1999/xlink"><path d="M-255.4,444.9h44.8c0.9,0,1.6-0.7,1.6-1.6v-44.8c0-0.9-0.7-1.6-1.6-1.6h-44.8c-0.9,0-1.6,0.7-1.6,1.6v44.8  C-257,444.2-256.3,444.9-255.4,444.9z M-221.4,416.9c0.3,0.1,0.4,0.4,0.4,0.8v6.8c0,0.6-0.6,1.1-1.1,0.8l-7.4-6v14.3  c0,0.5-0.3,0.9-0.8,0.9h-6c-0.4,0-0.8-0.4-0.8-0.9v-14.1l-6.9,5.7c-0.5,0.3-1.1-0.1-1.1-0.8v-6.8c0-0.3,0.2-0.6,0.4-0.8l11.7-9.3  L-221.4,416.9z"/></svg>