<?xml version="1.0" encoding="UTF-8" standalone="no"?>
<svg
   xmlns:dc="http://purl.org/dc/elements/1.1/"
   xmlns:cc="http://creativecommons.org/ns#"
   xmlns:rdf="http://www.w3.org/1999/02/22-rdf-syntax-ns#"
   xmlns:svg="http://www.w3.org/2000/svg"
   xmlns="http://www.w3.org/2000/svg"
   xmlns:sodipodi="http://sodipodi.sourceforge.net/DTD/sodipodi-0.dtd"
   xmlns:inkscape="http://www.inkscape.org/namespaces/inkscape"
   width="20"
   height="20"
   viewBox="0 0 20 20"
   fill="none"
   version="1.1"
   id="svg4"
   sodipodi:docname="facebook.svg"
   inkscape:version="1.0.1 (3bc2e813f5, 2020-09-07)">
  <metadata
     id="metadata10">
    <rdf:RDF>
      <cc:Work
         rdf:about="">
        <dc:format>image/svg+xml</dc:format>
        <dc:type
           rdf:resource="http://purl.org/dc/dcmitype/StillImage" />
      </cc:Work>
    </rdf:RDF>
  </metadata>
  <defs
     id="defs8" />
  <sodipodi:namedview
     pagecolor="#ffffff"
     bordercolor="#666666"
     borderopacity="1"
     objecttolerance="10"
     gridtolerance="10"
     guidetolerance="10"
     inkscape:pageopacity="0"
     inkscape:pageshadow="2"
     inkscape:window-width="1920"
     inkscape:window-height="1137"
     id="namedview6"
     showgrid="false"
     inkscape:zoom="36.75"
     inkscape:cx="10"
     inkscape:cy="10"
     inkscape:window-x="-8"
     inkscape:window-y="-8"
     inkscape:window-maximized="1"
     inkscape:current-layer="svg4" />
  <path
     d="M 17.070309,-7.46167e-7 2.9296993,-1.28061e-7 C 1.3143993,-5.74539e-8 -7.46167e-7,1.31439 -7.46167e-7,2.92969 V 17.0703 C -7.46167e-7,18.6856 1.3143993,20 2.9296993,20 h 5.8984 v -7.0703 h -2.3437 V 9.41406 h 2.3437 V 7.03125 c 0,-1.93863 1.5770197,-3.51563 3.5156497,-3.51563 h 3.55469 v 3.51563 h -3.55469 v 2.38281 h 3.55469 l -0.58594,3.51564 h -2.96875 V 20 h 4.72656 C 18.685609,20 20,18.6856 20,17.0703 l -1e-6,-14.14061 c 0,-1.6153 -1.31439,-2.929690816774 -2.92969,-2.929690746167 z"
     fill="#000000"
     id="path2" />
</svg>
