<?xml version="1.0" encoding="UTF-8" standalone="no"?>
<svg
   xmlns:dc="http://purl.org/dc/elements/1.1/"
   xmlns:cc="http://creativecommons.org/ns#"
   xmlns:rdf="http://www.w3.org/1999/02/22-rdf-syntax-ns#"
   xmlns:svg="http://www.w3.org/2000/svg"
   xmlns="http://www.w3.org/2000/svg"
   xmlns:sodipodi="http://sodipodi.sourceforge.net/DTD/sodipodi-0.dtd"
   xmlns:inkscape="http://www.inkscape.org/namespaces/inkscape"
   inkscape:version="1.0.1 (3bc2e813f5, 2020-09-07)"
   sodipodi:docname="github.svg"
   id="svg4"
   version="1.1"
   fill="none"
   viewBox="0 0 20 19"
   height="19"
   width="20">
  <metadata
     id="metadata10">
    <rdf:RDF>
      <cc:Work
         rdf:about="">
        <dc:format>image/svg+xml</dc:format>
        <dc:type
           rdf:resource="http://purl.org/dc/dcmitype/StillImage" />
        <dc:title></dc:title>
      </cc:Work>
    </rdf:RDF>
  </metadata>
  <defs
     id="defs8" />
  <sodipodi:namedview
     inkscape:current-layer="svg4"
     inkscape:window-maximized="1"
     inkscape:window-y="-8"
     inkscape:window-x="-8"
     inkscape:cy="10"
     inkscape:cx="9.5"
     inkscape:zoom="41.5"
     showgrid="false"
     id="namedview6"
     inkscape:window-height="1137"
     inkscape:window-width="1920"
     inkscape:pageshadow="2"
     inkscape:pageopacity="0"
     guidetolerance="10"
     gridtolerance="10"
     objecttolerance="10"
     borderopacity="1"
     bordercolor="#666666"
     pagecolor="#ffffff"
     inkscape:document-rotation="0" />
  <path
     style="fill:#000000;fill-opacity:1"
     id="path2"
     fill="#212121"
     d="m 10.006024,0.04167005 c -5.5249904,2.4e-7 -9.99999042,4.36167045 -9.99999042,9.74107025 0,4.3046297 2.86500002,7.9551297 6.83750002,9.2421297 0.5,0.0917 0.6833,-0.2098 0.6833,-0.4684 0,-0.2313 -0.0083,-0.8442 -0.0125,-1.6563 -2.7816,0.5874 -3.3683,-1.3068 -3.3683,-1.3068 -0.455,-1.1243 -1.1125,-1.425 -1.1125,-1.425 -0.9058,-0.6039 0.07,-0.5915 0.07,-0.5915 1.0042,0.0678 1.5317,1.0037 1.5317,1.0037 0.8916,1.4894 2.3408,1.059 2.9125,0.8104 0.09,-0.6303 0.3475,-1.059 0.6333,-1.3027 -2.2208,-0.2437 -4.555,-1.0814 -4.555,-4.8135595 0,-1.06316 0.3875,-1.93219 1.0292,-2.61371 -0.1125,-0.24617 -0.45,-1.23663 0.0875,-2.57817 0,0 0.8375,-0.26104 2.75,0.99872 0.8,-0.21643 1.65,-0.32382 2.5,-0.32878 0.8499594,0.00496 1.6999494,0.11235 2.4999594,0.32878 1.89999,-1.25976 2.73749,-0.99872 2.73749,-0.99872 0.5375,1.34154 0.20001,2.332 0.1,2.57817 0.6375,0.68152 1.025,1.55055 1.025,2.61371 0,3.7421595 -2.33749,4.5656595 -4.56249,4.8052595 0.35,0.2924 0.675,0.8897 0.675,1.8025 0,1.3036 -0.0125,2.351 -0.0125,2.6674 0,0.2553 0.175,0.5601 0.6875,0.4626 4.00083,-1.2788 6.863329,-4.9317 6.863329,-9.2297297 0,-5.3793998 -4.477499,-9.74107049 -9.999998,-9.74107025 z" />
</svg>
