<?xml version="1.0" encoding="UTF-8" standalone="no"?>
<svg
   xmlns:dc="http://purl.org/dc/elements/1.1/"
   xmlns:cc="http://creativecommons.org/ns#"
   xmlns:rdf="http://www.w3.org/1999/02/22-rdf-syntax-ns#"
   xmlns:svg="http://www.w3.org/2000/svg"
   xmlns="http://www.w3.org/2000/svg"
   xmlns:sodipodi="http://sodipodi.sourceforge.net/DTD/sodipodi-0.dtd"
   xmlns:inkscape="http://www.inkscape.org/namespaces/inkscape"
   width="20"
   height="20"
   viewBox="0 0 20 20"
   fill="none"
   version="1.1"
   id="svg8"
   sodipodi:docname="instagram.svg"
   inkscape:version="1.0.1 (3bc2e813f5, 2020-09-07)">
  <metadata
     id="metadata14">
    <rdf:RDF>
      <cc:Work
         rdf:about="">
        <dc:format>image/svg+xml</dc:format>
        <dc:type
           rdf:resource="http://purl.org/dc/dcmitype/StillImage" />
        <dc:title></dc:title>
      </cc:Work>
    </rdf:RDF>
  </metadata>
  <defs
     id="defs12" />
  <sodipodi:namedview
     pagecolor="#ffffff"
     bordercolor="#666666"
     borderopacity="1"
     objecttolerance="10"
     gridtolerance="10"
     guidetolerance="10"
     inkscape:pageopacity="0"
     inkscape:pageshadow="2"
     inkscape:window-width="1920"
     inkscape:window-height="1137"
     id="namedview10"
     showgrid="false"
     inkscape:zoom="36.75"
     inkscape:cx="5.137913"
     inkscape:cy="9.4131294"
     inkscape:window-x="-8"
     inkscape:window-y="-8"
     inkscape:window-maximized="1"
     inkscape:current-layer="svg8" />
  <path
     d="M 20,13.749999 V 6.2499994 C 20,2.7987994 17.201249,-6.0103201e-7 13.749999,-6.0103201e-7 H 6.2499994 C 2.7986994,-6.0103201e-7 -6.0103201e-7,2.7987994 -6.0103201e-7,6.2499994 V 13.749999 C -6.0103201e-7,17.201249 2.7987994,20 6.2499994,20 H 13.749999 C 17.201249,20 20,17.201249 20,13.749999 Z m -13.7500006,4.375 c -2.4125,0 -4.375,-1.9625 -4.375,-4.375 V 6.2499994 c 0,-2.4125 1.9625,-4.375 4.375,-4.375 h 7.4999996 c 2.4125,0 4.375,1.9625 4.375,4.375 v 7.4999996 c 0,2.4125 -1.9625,4.375 -4.375,4.375 z"
     fill="#000000"
     id="path2" />
  <path
     d="m 10,5 c -2.7612,0 -5,2.23875 -5,5 0,2.7613 2.2388,5 5,5 2.76125,0 5,-2.2388 5,-5 0,-2.76125 -2.23875,-5 -5,-5 z m 0,8.125 C 8.2775,13.125 6.875,11.7225 6.875,10 6.875,8.27625 8.2775,6.875 10,6.875 c 1.7225,0 3.125,1.40125 3.125,3.125 0,1.7225 -1.4025,3.125 -3.125,3.125 z"
     fill="#000000"
     id="path4" />
  <path
     d="m 15.101176,5.2368232 c 0.36796,0 0.66625,-0.29828 0.66625,-0.66624 0,-0.36796 -0.29829,-0.66625 -0.66625,-0.66625 -0.36796,0 -0.66625,0.29829 -0.66625,0.66625 0,0.36796 0.29829,0.66624 0.66625,0.66624 z"
     fill="#000000"
     id="path6" />
</svg>
